<?xml version="1.0" encoding="iso-8859-1"?>
<!-- Generator: Adobe Illustrator 16.0.0, SVG Export Plug-In . SVG Version: 6.00 Build 0)  -->
<!DOCTYPE svg PUBLIC "-//W3C//DTD SVG 1.1//EN" "http://www.w3.org/Graphics/SVG/1.1/DTD/svg11.dtd">
<svg version="1.1" id="Capa_1" xmlns="http://www.w3.org/2000/svg" xmlns:xlink="http://www.w3.org/1999/xlink" x="0px" y="0px"
	 width="611.999px" height="611.998px" viewBox="0 0 611.999 611.998" style="enable-background:new 0 0 611.999 611.998;"
	 xml:space="preserve">
<g>
	<g>
		<path d="M514.269,223.953c-8.273,0-14.988,6.705-14.988,14.988v265.486H451.16c0.539,0-1.839-2.867-1.839-4.596V402.68
			c0-8.283-3.977-18.155-12.26-18.155h-62.74c-8.273,0-14.928,9.882-14.928,18.155v97.152c0,1.729,0.289,4.596,0.829,4.596h-28.058
			H109.593V382.785c0-8.283-6.715-14.987-14.988-14.987c-8.273,0-14.988,6.704-14.988,14.987v136.951
			c0,8.283,4.526,14.668,12.8,14.668h239.748h187.07c8.273,0,10.021-6.395,10.021-14.668V238.941
			C529.256,230.658,522.542,223.953,514.269,223.953z M389.369,499.832V414.5h29.976v85.332c0,1.729,3.088,4.596,3.628,4.596
			h-34.553C388.959,504.428,389.369,501.57,389.369,499.832z"/>
		<path d="M608.133,266.569L441.737,82.537c-2.788-3.088-6.734-4.876-10.901-4.936c-4.286-0.13-10.651,1.619-13.529,4.616
			L299.441,202.68v-44.844c0-8.284-1.719-13.12-9.992-13.12h-64.598c-8.273,0-15.338,4.836-15.338,13.12v95.673l-9.612-7.104
			c-5.136-3.727-11.98-3.817-17.196-0.23L6.506,366.979c-6.834,4.676-8.553,14.009-3.867,20.833
			c2.908,4.236,7.614,6.515,12.38,6.515c2.928,0,5.875-0.849,8.463-2.628l167.526-114.837l103.397,75.08
			c6.705,4.866,16.056,3.367,20.943-3.327c4.856-6.695,3.377-16.067-3.317-20.934l-51.539-37.43
			c1.719-0.769,3.337-1.838,4.716-3.277l165.107-172.392l155.585,172.083c2.958,3.277,7.024,4.936,11.111,4.936
			c3.588,0,7.185-1.279,10.053-3.867C613.2,282.187,613.679,272.704,608.133,266.569z M243.556,266.25
			c-2.418,2.528-3.538,5.695-3.857,8.923l-3.787-2.628c2.308-2.638,3.577-6.045,3.577-9.822v-88.029h29.976v51.528
			c0,2.249,3.027,4.367,3.917,6.275L243.556,266.25z"/>
	</g>
</g>
<g>
</g>
<g>
</g>
<g>
</g>
<g>
</g>
<g>
</g>
<g>
</g>
<g>
</g>
<g>
</g>
<g>
</g>
<g>
</g>
<g>
</g>
<g>
</g>
<g>
</g>
<g>
</g>
<g>
</g>
</svg>
